<?xml version="1.0" encoding="UTF-8"?>
<svg id="_图层_1" data-name="图层 1" xmlns="http://www.w3.org/2000/svg" xmlns:xlink="http://www.w3.org/1999/xlink" viewBox="0 0 470.78 277.95">
  <defs>
    <linearGradient id="_未命名的渐变_5" data-name="未命名的渐变 5" x1="235.39" y1="267.75" x2="235.39" y2="-7.11" gradientUnits="userSpaceOnUse">
      <stop offset="0" stop-color="#e94b19" stop-opacity=".9"/>
      <stop offset="1" stop-color="#f4d12b"/>
    </linearGradient>
    <linearGradient id="_未命名的渐变_2" data-name="未命名的渐变 2" x1="235.39" y1="-6.96" x2="235.39" y2="239.97" gradientUnits="userSpaceOnUse">
      <stop offset="0" stop-color="#f18d2f"/>
      <stop offset="1" stop-color="#f4d12b"/>
    </linearGradient>
    <radialGradient id="_未命名的渐变_3" data-name="未命名的渐变 3" cx="230.21" cy="101.65" fx="230.21" fy="101.65" r="133.4" gradientTransform="translate(-19.19) scale(1.11 1)" gradientUnits="userSpaceOnUse">
      <stop offset="0" stop-color="#db3115"/>
      <stop offset="1" stop-color="#f18d2f" stop-opacity="0"/>
    </radialGradient>
    <linearGradient id="Degradado_sin_nombre_22" data-name="Degradado sin nombre 22" x1="114.84" y1="20.93" x2="114.84" y2="186.5" gradientUnits="userSpaceOnUse">
      <stop offset="0" stop-color="#2158a7"/>
      <stop offset="1" stop-color="#3fbee8"/>
    </linearGradient>
    <linearGradient id="Degradado_sin_nombre_7" data-name="Degradado sin nombre 7" x1="156.68" y1="141.97" x2="156.68" y2="20.56" gradientUnits="userSpaceOnUse">
      <stop offset="0" stop-color="#2158a7" stop-opacity="0"/>
      <stop offset="1" stop-color="#003d8b"/>
    </linearGradient>
    <linearGradient id="Degradado_sin_nombre_31" data-name="Degradado sin nombre 31" x1="75.03" y1="178.96" x2="170.12" y2="-12.63" gradientUnits="userSpaceOnUse">
      <stop offset="0" stop-color="#bbd3ee"/>
      <stop offset="1" stop-color="#3fbee8" stop-opacity="0"/>
    </linearGradient>
    <linearGradient id="Degradado_sin_nombre_7-2" data-name="Degradado sin nombre 7" x1="260.08" y1="383" x2="237.35" y2="336.72" gradientTransform="translate(80.39 -326.29) rotate(30.34)" xlink:href="#Degradado_sin_nombre_7"/>
    <linearGradient id="Degradado_sin_nombre_22-2" data-name="Degradado sin nombre 22" x1="933.87" y1="20.93" x2="933.87" y2="186.5" gradientTransform="translate(1289.81) rotate(-180) scale(1 -1)" xlink:href="#Degradado_sin_nombre_22"/>
    <linearGradient id="Degradado_sin_nombre_7-3" data-name="Degradado sin nombre 7" x1="975.71" y1="141.97" x2="975.71" y2="20.56" gradientTransform="translate(1289.81) rotate(-180) scale(1 -1)" xlink:href="#Degradado_sin_nombre_7"/>
    <linearGradient id="Degradado_sin_nombre_31-2" data-name="Degradado sin nombre 31" x1="894.06" y1="178.96" x2="989.15" y2="-12.63" gradientTransform="translate(1289.81) rotate(-180) scale(1 -1)" xlink:href="#Degradado_sin_nombre_31"/>
    <linearGradient id="Degradado_sin_nombre_7-4" data-name="Degradado sin nombre 7" x1="966.91" y1="-30.78" x2="944.18" y2="-77.06" gradientTransform="translate(1209.42 -326.29) rotate(149.66) scale(1 -1)" xlink:href="#Degradado_sin_nombre_7"/>
    <linearGradient id="Degradado_sin_nombre_22-3" data-name="Degradado sin nombre 22" x1="150.29" y1="44" x2="150.29" y2="291.6" xlink:href="#Degradado_sin_nombre_22"/>
    <linearGradient id="Degradado_sin_nombre_31-3" data-name="Degradado sin nombre 31" x1="88.13" y1="242.18" x2="198.46" y2="19.9" xlink:href="#Degradado_sin_nombre_31"/>
    <linearGradient id="Degradado_sin_nombre_7-5" data-name="Degradado sin nombre 7" x1="158.91" y1="180.78" x2="138.29" y2="138.81" xlink:href="#Degradado_sin_nombre_7"/>
    <linearGradient id="Degradado_sin_nombre_22-4" data-name="Degradado sin nombre 22" x1="969.32" y1="44" x2="969.32" y2="291.6" gradientTransform="translate(1289.81) rotate(-180) scale(1 -1)" xlink:href="#Degradado_sin_nombre_22"/>
    <linearGradient id="Degradado_sin_nombre_31-4" data-name="Degradado sin nombre 31" x1="907.16" y1="242.18" x2="1017.49" y2="19.9" gradientTransform="translate(1289.81) rotate(-180) scale(1 -1)" xlink:href="#Degradado_sin_nombre_31"/>
    <linearGradient id="Degradado_sin_nombre_7-6" data-name="Degradado sin nombre 7" x1="977.94" y1="180.78" x2="957.32" y2="138.81" gradientTransform="translate(1289.81) rotate(-180) scale(1 -1)" xlink:href="#Degradado_sin_nombre_7"/>
  </defs>
  <g>
    <path d="m235.39,277.95c-24.35-26.83-39.88-59.77-49.73-92.29-14.8-48.85-16.83-96.8-16.83-121.72,0-20.36,8.58-35.74,21.24-46.3C202.62,7.16,218.78.2,235.38,0c0,0,0,0,.01,0,0,0,0,0,.01,0,16.38.2,32.76,7.16,45.3,17.64,12.67,10.57,21.24,25.94,21.24,46.3,0,24.93-2.03,72.87-16.83,121.72-9.85,32.52-25.38,65.46-49.73,92.29Z" style="fill: url(#_未命名的渐变_5);"/>
    <path d="m235.39,247.44c-42.04-61.71-46.96-147.08-46.96-183.5,0-30.33,25.35-45.74,46.96-46.12,23.39.37,46.96,15.79,46.96,46.12,0,36.42-4.92,121.79-46.96,183.5Z" style="fill: url(#_未命名的渐变_2);"/>
    <path d="m235.39,125.85c-7.22,19.72-30.28,46.88-49.73,59.81-14.8-48.85-16.83-96.8-16.83-121.72,0-20.36,8.58-35.74,21.24-46.3,13.08,6.51,38.96,21.62,45.3,41.87,0-.01,0-.03.01-.04,0,.01,0,.03.01.04,6.35-20.25,32.22-35.36,45.3-41.87,12.67,10.57,21.24,25.94,21.24,46.3,0,24.93-2.03,72.87-16.83,121.72-19.44-12.93-42.51-40.09-49.73-59.81Z" style="fill: url(#_未命名的渐变_3);"/>
  </g>
  <g>
    <g>
      <path d="m225.41,89.53c-4.78,10.04-13.38,18.61-25.12,23.73-7.18,3.17-24.75,9.06-46.7,15.46-21.1,6.14-46.19,12.74-69.9,17.75-37.19,7.87-71,11.89-80.81,4.27,0,0,0,0,0,0-.22-.18-.44-.35-.64-.53-.2-.18-.37-.35-.54-.55-.02-.02-.05-.04-.05-.07-.15-.16-.29-.31-.42-.49-.17-.22-.32-.47-.44-.71-.54-1-.78-2.1-.78-3.32,0-.42.02-.86.1-1.31v-.02c.05-.38.12-.75.22-1.15.15-.6.34-1.22.59-1.86.17-.44.34-.89.56-1.33.22-.49.47-.97.74-1.48.02-.02.05-.07.07-.11.29-.53.61-1.09.96-1.64.05-.11.12-.2.17-.29.29-.47.61-.95.96-1.42.78-1.15,1.69-2.35,2.7-3.59.44-.53.88-1.06,1.35-1.62,5.32-6.2,12.86-13.18,21.81-20.54,1.64-1.35,3.36-2.73,5.1-4.1.86-.69,1.74-1.4,2.65-2.08,4.44-3.48,9.14-7,13.99-10.52,1.91-1.37,3.82-2.77,5.78-4.17,1.23-.86,2.47-1.75,3.72-2.61,1.1-.78,2.2-1.55,3.31-2.3.42-.31.86-.6,1.3-.91,1.27-.89,2.55-1.75,3.85-2.64,2.74-1.86,5.49-3.72,8.23-5.54,2.25-1.51,4.51-2.99,6.74-4.45,1.13-.71,2.23-1.44,3.36-2.17,2.16-1.4,4.29-2.77,6.42-4.12,1.18-.75,2.35-1.48,3.53-2.24,2.21-1.37,4.36-2.73,6.52-4.05,1.05-.66,2.13-1.33,3.19-1.97,6.89-4.23,13.45-8.15,19.43-11.65h.02c12.32-7.16,22.2-12.45,27.42-14.73,25.92-11.37,57.12-1.6,69.68,21.82.37.69.71,1.4,1.03,2.08.29.6.54,1.2.78,1.77.07.2.15.38.22.55.2.49.39.97.56,1.46l.29.8c.2.6.39,1.2.56,1.79,3.09,10.41,2.03,21.27-2.5,30.8Z" style="fill: url(#Degradado_sin_nombre_22);"/>
      <path d="m225.41,89.53c-4.78,10.04-13.38,18.61-25.12,23.73-7.18,3.17-24.75,9.06-46.7,15.46-21.1,6.14-46.19,12.74-69.9,17.75,4.12-13.14,17.64-54.26,36.58-90.48,2.3-4.36,4.66-8.64,7.06-12.81h.02c12.32-7.16,22.2-12.45,27.42-14.73,25.92-11.37,57.12-1.6,69.68,21.82.37.69.71,1.4,1.03,2.08.29.6.54,1.2.78,1.77.07.2.15.38.22.55.2.49.39.97.56,1.46l.29.8c.2.6.39,1.2.56,1.79,3.09,10.41,2.03,21.27-2.5,30.8Z" style="fill: url(#Degradado_sin_nombre_7); opacity: .31;"/>
      <path d="m227.9,58.73c-.25-.49-.47-.97-.71-1.46-12.57-23.42-43.76-33.19-69.66-21.82-6.54,2.88-20.41,10.44-37.27,20.54C74.2,83.57,5.77,129.99,2.88,150.74c-.22-.18-.44-.35-.64-.53-.2-.18-.37-.35-.54-.55-.02-.02-.05-.04-.05-.07-.15-.16-.29-.31-.42-.49-.17-.22-.32-.47-.44-.71-.54-1-.78-2.1-.78-3.32,0-.42.02-.86.1-1.31v-.02c.05-.38.12-.75.22-1.15.15-.6.34-1.22.59-1.86.17-.44.34-.89.56-1.33.22-.49.47-.97.74-1.48.02-.02.05-.07.07-.11.29-.53.61-1.09.96-1.64.05-.11.12-.2.17-.29.29-.47.61-.95.96-1.42.78-1.15,1.69-2.35,2.7-3.59.44-.53.88-1.06,1.35-1.62,5.32-6.2,12.86-13.18,21.81-20.54,1.64-1.35,3.36-2.73,5.1-4.1.86-.69,1.74-1.4,2.65-2.08,4.44-3.48,9.14-7,13.99-10.52,1.91-1.37,3.82-2.77,5.78-4.17,1.23-.86,2.47-1.75,3.72-2.61,1.1-.78,2.2-1.55,3.31-2.3.42-.31.86-.6,1.3-.91,1.27-.89,2.55-1.75,3.85-2.64,2.74-1.86,5.49-3.72,8.23-5.54,2.25-1.51,4.51-2.99,6.74-4.45,1.13-.71,2.23-1.44,3.36-2.17,2.16-1.4,4.29-2.77,6.42-4.12,1.18-.75,2.35-1.48,3.53-2.24,2.21-1.37,4.36-2.73,6.52-4.05,1.05-.66,2.13-1.33,3.19-1.97,6.89-4.23,13.45-8.15,19.43-11.65h.02c12.32-7.16,22.2-12.45,27.42-14.73,25.92-11.37,57.12-1.6,69.68,21.82.37.69.71,1.4,1.03,2.08.29.6.54,1.2.78,1.77.07.2.15.38.22.55.2.49.39.97.56,1.46l.29.8c.2.6.39,1.2.56,1.79Z" style="fill: url(#Degradado_sin_nombre_31);"/>
    </g>
    <path d="m200.3,113.27c-7.19,3.15-24.77,9.06-46.71,15.45C96.48,145.37,9.88,165.31.79,148.39c-4.24-7.93,9-22.89,29.42-39.68,43.71,4.99,148.55,12.82,195.19-19.18-4.77,10.02-13.39,18.6-25.1,23.73Z" style="fill: url(#Degradado_sin_nombre_7-2); opacity: .65;"/>
  </g>
  <g>
    <g>
      <path d="m245.37,89.53c4.78,10.04,13.38,18.61,25.11,23.73,7.18,3.17,24.75,9.06,46.7,15.46,21.1,6.14,46.19,12.74,69.9,17.75,37.19,7.87,71,11.89,80.81,4.27,0,0,0,0,0,0,.22-.18.44-.35.64-.53.2-.18.37-.35.54-.55.02-.02.05-.04.05-.07.15-.16.29-.31.42-.49.17-.22.32-.47.44-.71.54-1,.78-2.1.78-3.32,0-.42-.02-.86-.1-1.31v-.02c-.05-.38-.12-.75-.22-1.15-.15-.6-.34-1.22-.59-1.86-.17-.44-.34-.89-.56-1.33-.22-.49-.47-.97-.74-1.48-.02-.02-.05-.07-.07-.11-.29-.53-.61-1.09-.96-1.64-.05-.11-.12-.2-.17-.29-.29-.47-.61-.95-.96-1.42-.78-1.15-1.69-2.35-2.7-3.59-.44-.53-.88-1.06-1.35-1.62-5.32-6.2-12.86-13.18-21.81-20.54-1.64-1.35-3.36-2.73-5.1-4.1-.86-.69-1.74-1.4-2.65-2.08-4.44-3.48-9.14-7-13.99-10.52-1.91-1.37-3.82-2.77-5.78-4.17-1.23-.86-2.47-1.75-3.72-2.61-1.1-.78-2.21-1.55-3.31-2.3-.42-.31-.86-.6-1.3-.91-1.27-.89-2.55-1.75-3.85-2.64-2.74-1.86-5.49-3.72-8.23-5.54-2.25-1.51-4.51-2.99-6.74-4.45-1.13-.71-2.23-1.44-3.36-2.17-2.16-1.4-4.29-2.77-6.42-4.12-1.18-.75-2.35-1.48-3.53-2.24-2.21-1.37-4.36-2.73-6.52-4.05-1.05-.66-2.13-1.33-3.19-1.97-6.89-4.23-13.45-8.15-19.43-11.65h-.02c-12.32-7.16-22.2-12.45-27.42-14.73-25.92-11.37-57.12-1.6-69.68,21.82-.37.69-.71,1.4-1.03,2.08-.29.6-.54,1.2-.78,1.77-.07.2-.15.38-.22.55-.2.49-.39.97-.56,1.46-.1.27-.2.53-.29.8-.2.6-.39,1.2-.56,1.79-3.09,10.41-2.03,21.27,2.5,30.8Z" style="fill: url(#Degradado_sin_nombre_22-2);"/>
      <path d="m245.37,89.53c4.78,10.04,13.38,18.61,25.11,23.73,7.18,3.17,24.75,9.06,46.7,15.46,21.1,6.14,46.19,12.74,69.9,17.75-4.12-13.14-17.64-54.26-36.58-90.48-2.3-4.36-4.66-8.64-7.06-12.81h-.02c-12.32-7.16-22.2-12.45-27.42-14.73-25.92-11.37-57.12-1.6-69.68,21.82-.37.69-.71,1.4-1.03,2.08-.29.6-.54,1.2-.78,1.77-.07.2-.15.38-.22.55-.2.49-.39.97-.56,1.46-.1.27-.2.53-.29.8-.2.6-.39,1.2-.56,1.79-3.09,10.41-2.03,21.27,2.5,30.8Z" style="fill: url(#Degradado_sin_nombre_7-3); opacity: .31;"/>
      <path d="m242.88,58.73c.25-.49.47-.97.71-1.46,12.57-23.42,43.76-33.19,69.66-21.82,6.54,2.88,20.41,10.44,37.27,20.54,46.06,27.58,114.5,74,117.39,94.76.22-.18.44-.35.64-.53.2-.18.37-.35.54-.55.02-.02.05-.04.05-.07.15-.16.29-.31.42-.49.17-.22.32-.47.44-.71.54-1,.78-2.1.78-3.32,0-.42-.02-.86-.1-1.31v-.02c-.05-.38-.12-.75-.22-1.15-.15-.6-.34-1.22-.59-1.86-.17-.44-.34-.89-.56-1.33-.22-.49-.47-.97-.74-1.48-.02-.02-.05-.07-.07-.11-.29-.53-.61-1.09-.96-1.64-.05-.11-.12-.2-.17-.29-.29-.47-.61-.95-.96-1.42-.78-1.15-1.69-2.35-2.7-3.59-.44-.53-.88-1.06-1.35-1.62-5.32-6.2-12.86-13.18-21.81-20.54-1.64-1.35-3.36-2.73-5.1-4.1-.86-.69-1.74-1.4-2.65-2.08-4.44-3.48-9.14-7-13.99-10.52-1.91-1.37-3.82-2.77-5.78-4.17-1.23-.86-2.47-1.75-3.72-2.61-1.1-.78-2.21-1.55-3.31-2.3-.42-.31-.86-.6-1.3-.91-1.27-.89-2.55-1.75-3.85-2.64-2.74-1.86-5.49-3.72-8.23-5.54-2.25-1.51-4.51-2.99-6.74-4.45-1.13-.71-2.23-1.44-3.36-2.17-2.16-1.4-4.29-2.77-6.42-4.12-1.18-.75-2.35-1.48-3.53-2.24-2.21-1.37-4.36-2.73-6.52-4.05-1.05-.66-2.13-1.33-3.19-1.97-6.89-4.23-13.45-8.15-19.43-11.65h-.02c-12.32-7.16-22.2-12.45-27.42-14.73-25.92-11.37-57.12-1.6-69.68,21.82-.37.69-.71,1.4-1.03,2.08-.29.6-.54,1.2-.78,1.77-.07.2-.15.38-.22.55-.2.49-.39.97-.56,1.46-.1.27-.2.53-.29.8-.2.6-.39,1.2-.56,1.79Z" style="fill: url(#Degradado_sin_nombre_31-2);"/>
    </g>
    <path d="m270.48,113.27c7.19,3.15,24.77,9.06,46.71,15.45,57.11,16.65,143.71,36.59,152.8,19.68,4.24-7.93-9-22.89-29.42-39.68-43.71,4.99-148.55,12.82-195.19-19.18,4.77,10.02,13.39,18.6,25.1,23.73Z" style="fill: url(#Degradado_sin_nombre_7-4); opacity: .65;"/>
  </g>
  <g>
    <g>
      <path d="m224.54,121.5c-4.44,6-16.32,19.13-31.68,34.67-39.98,40.46-103.58,97.22-120.88,86.77-8.09-4.9-5.02-23.86,3.23-47.68,5.34-15.42,12.83-32.85,20.84-49.83,16.26-34.36,34.72-66.76,41.81-76.35,16.03-21.64,48.39-27.45,72.33-12.98,13.09,7.94,20.97,20.32,22.77,33.45,1.48,10.83-1.16,22.17-8.41,31.95Z" style="fill: url(#Degradado_sin_nombre_22-3);"/>
      <path d="m144.14,73.88c16.01-21.64,48.39-27.45,72.33-12.98.49.3.95.62,1.43.94-2.33-2.08-4.89-4.01-7.71-5.72-23.94-14.48-56.32-8.67-72.33,12.98-16.01,21.64-89.81,159.38-65.88,173.86.91.55,1.95.89,3.1,1.08-12.43-26.28,53.97-149.76,69.06-170.15Z" style="fill: url(#Degradado_sin_nombre_31-3);"/>
    </g>
    <path d="m224.54,121.5c-4.44,6-16.32,19.13-31.68,34.67-39.98,40.46-103.58,97.22-120.88,86.77-8.09-4.9-5.02-23.86,3.23-47.68,40.51-15.66,135.37-56.79,157.74-105.71,1.48,10.83-1.16,22.17-8.41,31.95Z" style="fill: url(#Degradado_sin_nombre_7-5); opacity: .65;"/>
  </g>
  <g>
    <g>
      <path d="m246.24,121.5c4.44,6,16.32,19.13,31.68,34.67,39.98,40.46,103.58,97.22,120.88,86.77,8.09-4.9,5.02-23.86-3.23-47.68-5.34-15.42-12.83-32.85-20.84-49.83-16.26-34.36-34.72-66.76-41.81-76.35-16.03-21.64-48.39-27.45-72.33-12.98-13.09,7.94-20.97,20.32-22.77,33.45-1.48,10.83,1.16,22.17,8.41,31.95Z" style="fill: url(#Degradado_sin_nombre_22-4);"/>
      <path d="m326.64,73.88c-16.01-21.64-48.39-27.45-72.33-12.98-.49.3-.95.62-1.43.94,2.33-2.08,4.89-4.01,7.71-5.72,23.94-14.48,56.32-8.67,72.33,12.98,16.01,21.64,89.81,159.38,65.88,173.86-.91.55-1.95.89-3.1,1.08,12.43-26.28-53.97-149.76-69.05-170.15Z" style="fill: url(#Degradado_sin_nombre_31-4);"/>
    </g>
    <path d="m246.24,121.5c4.44,6,16.32,19.13,31.68,34.67,39.98,40.46,103.58,97.22,120.88,86.77,8.09-4.9,5.02-23.86-3.23-47.68-40.51-15.66-135.37-56.79-157.74-105.71-1.48,10.83,1.16,22.17,8.41,31.95Z" style="fill: url(#Degradado_sin_nombre_7-6); opacity: .65;"/>
  </g>
</svg>